# xmcd
#
# Track frame offsets:
#	150
#	15690
#	31845
#	48727
#	67887
#	84315
#	106950
#	119415
#	136907
#	156200
#	172330
#	189750
#
# Disc length: 2789 seconds
#
# Revision: 0
# Processed by: cddbd v1.4PL0 Copyright (c) Steve Scherf et al.
# Submitted via: audiograbber 1.81.01
#
DISCID=980ae30c
DTITLE=Equipe 84 - I grandi successi originali CD 2
DYEAR=1900
DGENRE=pop
TTITLE0=Tutta mia la città
TTITLE1=E poi...
TTITLE2=Cominciava così
TTITLE3=Il sapone, la pistola, la chitarra e altre meraviglie
TTITLE4=4 marzo 1943
TTITLE5=Clinica Fior di Loto SPA
TTITLE6=Pomeriggio ore sei
TTITLE7=Casa mia
TTITLE8=Una giornata al mare
TTITLE9=Mercante senza fiori
TTITLE10=Diario
TTITLE11=Devo andare
EXTD=
EXTT0=
EXTT1=
EXTT2=
EXTT3=
EXTT4=
EXTT5=
EXTT6=
EXTT7=
EXTT8=
EXTT9=
EXTT10=
EXTT11=
PLAYORDER=
